<mxfile host="Electron" agent="Mozilla/5.0 (Windows NT 10.0; Win64; x64) AppleWebKit/537.36 (KHTML, like Gecko) draw.io/27.0.9 Chrome/134.0.6998.205 Electron/35.4.0 Safari/537.36" version="27.0.9">
  <diagram name="Page-1" id="_qw2nKSUtS-gzmmhCbGM">
    <mxGraphModel dx="1042" dy="674" grid="1" gridSize="10" guides="1" tooltips="1" connect="1" arrows="1" fold="1" page="1" pageScale="1" pageWidth="850" pageHeight="1100" math="0" shadow="0">
      <root>
        <mxCell id="0" />
        <mxCell id="1" parent="0" />
        <mxCell id="ppyu9AYOxugM7ncmXc7M-3" style="edgeStyle=orthogonalEdgeStyle;rounded=0;orthogonalLoop=1;jettySize=auto;html=1;entryX=0;entryY=0.5;entryDx=0;entryDy=0;endArrow=none;endFill=0;curved=1;startFill=0;" parent="1" source="ppyu9AYOxugM7ncmXc7M-1" target="ppyu9AYOxugM7ncmXc7M-2" edge="1">
          <mxGeometry relative="1" as="geometry" />
        </mxCell>
        <mxCell id="ppyu9AYOxugM7ncmXc7M-11" style="edgeStyle=orthogonalEdgeStyle;rounded=0;orthogonalLoop=1;jettySize=auto;html=1;entryX=0;entryY=0.5;entryDx=0;entryDy=0;curved=1;endArrow=none;startFill=0;" parent="1" source="ppyu9AYOxugM7ncmXc7M-1" target="ppyu9AYOxugM7ncmXc7M-10" edge="1">
          <mxGeometry relative="1" as="geometry" />
        </mxCell>
        <mxCell id="ppyu9AYOxugM7ncmXc7M-1" value="Usuário" style="shape=umlActor;verticalLabelPosition=bottom;verticalAlign=top;html=1;" parent="1" vertex="1">
          <mxGeometry x="130" y="270" width="30" height="60" as="geometry" />
        </mxCell>
        <mxCell id="ppyu9AYOxugM7ncmXc7M-5" style="edgeStyle=orthogonalEdgeStyle;rounded=0;orthogonalLoop=1;jettySize=auto;html=1;entryX=0;entryY=0.5;entryDx=0;entryDy=0;dashed=1;curved=1;endArrow=open;endFill=0;" parent="1" source="ppyu9AYOxugM7ncmXc7M-2" target="ppyu9AYOxugM7ncmXc7M-4" edge="1">
          <mxGeometry relative="1" as="geometry" />
        </mxCell>
        <mxCell id="ppyu9AYOxugM7ncmXc7M-6" value="&amp;lt;&amp;lt;includes&amp;gt;&amp;gt;" style="edgeLabel;html=1;align=center;verticalAlign=middle;resizable=0;points=[];" parent="ppyu9AYOxugM7ncmXc7M-5" vertex="1" connectable="0">
          <mxGeometry x="-0.0396" y="-2" relative="1" as="geometry">
            <mxPoint as="offset" />
          </mxGeometry>
        </mxCell>
        <mxCell id="ppyu9AYOxugM7ncmXc7M-2" value="Adicionar integração" style="ellipse;whiteSpace=wrap;html=1;" parent="1" vertex="1">
          <mxGeometry x="285" y="150" width="140" height="70" as="geometry" />
        </mxCell>
        <mxCell id="ppyu9AYOxugM7ncmXc7M-8" style="edgeStyle=orthogonalEdgeStyle;rounded=0;orthogonalLoop=1;jettySize=auto;html=1;entryX=0;entryY=0.5;entryDx=0;entryDy=0;dashed=1;curved=1;endArrow=open;endFill=0;" parent="1" source="ppyu9AYOxugM7ncmXc7M-4" target="ppyu9AYOxugM7ncmXc7M-7" edge="1">
          <mxGeometry relative="1" as="geometry" />
        </mxCell>
        <mxCell id="ppyu9AYOxugM7ncmXc7M-9" value="&amp;lt;&amp;lt;includes&amp;gt;&amp;gt;" style="edgeLabel;html=1;align=center;verticalAlign=middle;resizable=0;points=[];" parent="ppyu9AYOxugM7ncmXc7M-8" vertex="1" connectable="0">
          <mxGeometry x="-0.0682" y="-2" relative="1" as="geometry">
            <mxPoint as="offset" />
          </mxGeometry>
        </mxCell>
        <mxCell id="ppyu9AYOxugM7ncmXc7M-4" value="Selecionar rede social" style="ellipse;whiteSpace=wrap;html=1;" parent="1" vertex="1">
          <mxGeometry x="520" y="110" width="140" height="70" as="geometry" />
        </mxCell>
        <mxCell id="ppyu9AYOxugM7ncmXc7M-12" style="edgeStyle=orthogonalEdgeStyle;rounded=0;orthogonalLoop=1;jettySize=auto;html=1;entryX=1;entryY=0.5;entryDx=0;entryDy=0;curved=1;endArrow=open;endFill=0;dashed=1;exitX=0.5;exitY=1;exitDx=0;exitDy=0;" parent="1" source="ppyu9AYOxugM7ncmXc7M-7" target="ppyu9AYOxugM7ncmXc7M-10" edge="1">
          <mxGeometry relative="1" as="geometry" />
        </mxCell>
        <mxCell id="ppyu9AYOxugM7ncmXc7M-13" value="&amp;lt;&amp;lt;includes&amp;gt;&amp;gt;" style="edgeLabel;html=1;align=center;verticalAlign=middle;resizable=0;points=[];" parent="ppyu9AYOxugM7ncmXc7M-12" vertex="1" connectable="0">
          <mxGeometry x="0.3674" y="-4" relative="1" as="geometry">
            <mxPoint x="1" as="offset" />
          </mxGeometry>
        </mxCell>
        <mxCell id="ppyu9AYOxugM7ncmXc7M-7" value="Adicionar credenciais" style="ellipse;whiteSpace=wrap;html=1;" parent="1" vertex="1">
          <mxGeometry x="700" y="180" width="140" height="70" as="geometry" />
        </mxCell>
        <mxCell id="ppyu9AYOxugM7ncmXc7M-15" style="edgeStyle=orthogonalEdgeStyle;rounded=0;orthogonalLoop=1;jettySize=auto;html=1;entryX=0;entryY=0.5;entryDx=0;entryDy=0;curved=1;dashed=1;endArrow=open;endFill=0;exitX=0.5;exitY=1;exitDx=0;exitDy=0;" parent="1" source="ppyu9AYOxugM7ncmXc7M-10" target="ppyu9AYOxugM7ncmXc7M-14" edge="1">
          <mxGeometry relative="1" as="geometry" />
        </mxCell>
        <mxCell id="ppyu9AYOxugM7ncmXc7M-16" value="&amp;lt;&amp;lt;extends&amp;gt;&amp;gt;" style="edgeLabel;html=1;align=center;verticalAlign=middle;resizable=0;points=[];" parent="ppyu9AYOxugM7ncmXc7M-15" vertex="1" connectable="0">
          <mxGeometry x="-0.431" y="8" relative="1" as="geometry">
            <mxPoint as="offset" />
          </mxGeometry>
        </mxCell>
        <mxCell id="ppyu9AYOxugM7ncmXc7M-10" value="Atribuir nome" style="ellipse;whiteSpace=wrap;html=1;" parent="1" vertex="1">
          <mxGeometry x="480" y="280" width="140" height="70" as="geometry" />
        </mxCell>
        <mxCell id="ppyu9AYOxugM7ncmXc7M-14" value="Atribuir &lt;i&gt;tags&lt;/i&gt;" style="ellipse;whiteSpace=wrap;html=1;" parent="1" vertex="1">
          <mxGeometry x="630" y="380" width="140" height="70" as="geometry" />
        </mxCell>
        <mxCell id="ppyu9AYOxugM7ncmXc7M-17" value="Nova integração" style="shape=umlFrame;whiteSpace=wrap;html=1;pointerEvents=0;width=120;height=35;" parent="1" vertex="1">
          <mxGeometry x="90" y="85" width="800" height="405" as="geometry" />
        </mxCell>
      </root>
    </mxGraphModel>
  </diagram>
</mxfile>
